<svg version="1.2" xmlns="http://www.w3.org/2000/svg" viewBox="0 0 1113 777" width="1113" height="777">
	<title>file-ai</title>
	<style>
		.s0 { fill: #ffffff } 
		.s1 { fill: #0c2646 } 
	</style>
	<g id="Background">
		<path id="&lt;Path&gt;" class="s0" d="m1356 1080h-1600v-1600h1600z" />
	</g>
	<g id="Objects">
		<g id="&lt;Group&gt;">
			<g id="&lt;Group&gt;">
				<path id="ASTRO COMMERCE" fill="#000000" aria-label="ASTRO COMMERCE"  d="m264.72 632.85h19.26l-8.1-20.99q-0.36-0.94-0.75-2.16q-0.4-1.26-0.76-2.66q-0.75 2.91-1.55 4.86zm13.18-32.44l20.63 51.59h-5.4q-0.94 0-1.51-0.47q-0.58-0.47-0.87-1.19l-4.82-12.45h-23.15l-4.82 12.45q-0.22 0.65-0.83 1.15q-0.61 0.51-1.51 0.51h-5.4l20.62-51.59zm55.52 4.75l-1.7 3.31q-0.32 0.54-0.72 0.83q-0.36 0.25-0.9 0.25q-0.61 0-1.44-0.61q-0.82-0.61-2.08-1.33q-1.23-0.76-2.99-1.37q-1.73-0.61-4.21-0.61q-2.34 0-4.14 0.65q-1.77 0.61-2.99 1.69q-1.19 1.08-1.8 2.56q-0.61 1.44-0.61 3.13q0 2.16 1.04 3.6q1.08 1.4 2.81 2.41q1.76 1.01 3.96 1.76q2.23 0.72 4.53 1.52q2.34 0.79 4.54 1.8q2.23 0.97 3.96 2.48q1.76 1.51 2.81 3.71q1.08 2.19 1.08 5.4q0 3.38-1.15 6.37q-1.16 2.95-3.39 5.15q-2.19 2.19-5.43 3.45q-3.21 1.26-7.31 1.26q-5.04 0-9.15-1.8q-4.1-1.83-7.02-4.93l2.02-3.31q0.29-0.4 0.68-0.65q0.44-0.29 0.94-0.29q0.47 0 1.04 0.4q0.62 0.36 1.37 0.94q0.76 0.57 1.73 1.26q0.97 0.68 2.2 1.26q1.26 0.57 2.84 0.97q1.58 0.36 3.56 0.36q2.49 0 4.43-0.69q1.95-0.68 3.28-1.9q1.37-1.26 2.09-2.99q0.72-1.73 0.72-3.85q0-2.34-1.08-3.82q-1.05-1.51-2.78-2.52q-1.72-1.01-3.96-1.69q-2.23-0.72-4.53-1.44q-2.31-0.76-4.54-1.73q-2.23-0.97-3.96-2.52q-1.73-1.55-2.81-3.85q-1.04-2.34-1.04-5.76q0-2.74 1.04-5.29q1.08-2.56 3.1-4.54q2.05-1.98 5-3.17q2.99-1.19 6.84-1.19q4.32 0 7.85 1.37q3.57 1.37 6.27 3.96zm45.86-4.75v5.87h-16.7v45.72h-6.95v-45.72h-16.74v-5.87zm14.58 24.98h7.34q3.03 0 5.33-0.72q2.34-0.75 3.89-2.08q1.58-1.37 2.37-3.24q0.8-1.88 0.8-4.14q0-4.61-3.03-6.95q-3.02-2.34-9.07-2.34h-7.63zm16.13 6.12l15.04 20.48h-6.19q-1.91 0-2.81-1.47l-13.39-18.44q-0.61-0.86-1.33-1.22q-0.68-0.4-2.16-0.4h-5.29v21.53h-6.95v-51.59h14.58q4.9 0 8.46 1.01q3.56 0.97 5.87 2.85q2.34 1.87 3.45 4.53q1.12 2.63 1.12 5.91q0 2.73-0.86 5.11q-0.87 2.37-2.52 4.28q-1.62 1.87-4 3.21q-2.34 1.33-5.33 2.01q1.33 0.76 2.31 2.2zm69.19-5.29q0 5.79-1.84 10.65q-1.83 4.83-5.18 8.32q-3.35 3.49-8.07 5.43q-4.68 1.91-10.36 1.91q-5.69 0-10.37-1.91q-4.68-1.94-8.03-5.43q-3.35-3.49-5.18-8.32q-1.84-4.86-1.84-10.65q0-5.8 1.84-10.62q1.83-4.86 5.18-8.36q3.35-3.52 8.03-5.47q4.68-1.94 10.37-1.94q5.68 0 10.36 1.94q4.72 1.95 8.07 5.47q3.35 3.5 5.18 8.36q1.84 4.82 1.84 10.62zm-7.17 0q0-4.76-1.29-8.54q-1.3-3.78-3.67-6.37q-2.38-2.63-5.76-4.03q-3.39-1.4-7.56-1.4q-4.14 0-7.53 1.4q-3.38 1.4-5.79 4.03q-2.38 2.59-3.68 6.37q-1.29 3.78-1.29 8.54q0 4.75 1.29 8.53q1.3 3.74 3.68 6.37q2.41 2.59 5.79 4q3.39 1.36 7.53 1.36q4.17 0 7.56-1.36q3.38-1.41 5.76-4q2.37-2.63 3.67-6.37q1.29-3.78 1.29-8.53zm71.79 15.12q0.57 0 1.01 0.46l2.77 2.99q-3.17 3.67-7.71 5.73q-4.5 2.05-10.9 2.05q-5.55 0-10.08-1.91q-4.54-1.94-7.74-5.4q-3.21-3.49-4.97-8.35q-1.77-4.86-1.77-10.69q0-5.84 1.84-10.7q1.84-4.86 5.15-8.35q3.35-3.49 7.99-5.4q4.64-1.94 10.26-1.94q5.51 0 9.72 1.76q4.21 1.77 7.42 4.79l-2.31 3.2q-0.21 0.36-0.57 0.62q-0.33 0.21-0.9 0.21q-0.65 0-1.59-0.68q-0.93-0.72-2.45-1.59q-1.51-0.86-3.78-1.54q-2.26-0.72-5.58-0.72q-3.99 0-7.3 1.4q-3.32 1.37-5.73 4q-2.37 2.62-3.71 6.4q-1.33 3.78-1.33 8.54q0 4.82 1.37 8.6q1.4 3.78 3.78 6.41q2.41 2.59 5.65 3.96q3.28 1.37 7.06 1.37q2.3 0 4.14-0.26q1.87-0.28 3.42-0.86q1.58-0.58 2.91-1.44q1.37-0.9 2.7-2.12q0.62-0.54 1.23-0.54zm58.53-15.12q0 5.79-1.83 10.65q-1.84 4.83-5.19 8.32q-3.34 3.49-8.06 5.43q-4.68 1.91-10.37 1.91q-5.69 0-10.37-1.91q-4.68-1.94-8.02-5.43q-3.35-3.49-5.19-8.32q-1.83-4.86-1.83-10.65q0-5.8 1.83-10.62q1.84-4.86 5.19-8.36q3.34-3.52 8.02-5.47q4.68-1.94 10.37-1.94q5.69 0 10.37 1.94q4.72 1.95 8.06 5.47q3.35 3.5 5.19 8.36q1.83 4.82 1.83 10.62zm-7.16 0q0-4.76-1.3-8.54q-1.29-3.78-3.67-6.37q-2.37-2.63-5.76-4.03q-3.38-1.4-7.56-1.4q-4.14 0-7.52 1.4q-3.39 1.4-5.8 4.03q-2.37 2.59-3.67 6.37q-1.3 3.78-1.3 8.54q0 4.75 1.3 8.53q1.3 3.74 3.67 6.37q2.41 2.59 5.8 4q3.38 1.36 7.52 1.36q4.18 0 7.56-1.36q3.39-1.41 5.76-4q2.38-2.63 3.67-6.37q1.3-3.78 1.3-8.53zm65.66-25.82h5.15v51.59h-6.12v-37.91q0-0.75 0.04-1.62q0.07-0.86 0.14-1.76l-17.71 32.26q-0.83 1.62-2.52 1.62h-1.01q-1.69 0-2.52-1.62l-18.07-32.4q0.22 1.9 0.22 3.52v37.91h-6.12v-51.59h5.14q0.94 0 1.44 0.18q0.51 0.18 0.98 1.01l17.82 31.75q0.43 0.87 0.82 1.8q0.44 0.94 0.8 1.91q0.36-0.97 0.75-1.91q0.4-0.97 0.87-1.83l17.49-31.72q0.43-0.83 0.94-1.01q0.54-0.18 1.47-0.18zm66.86 0h5.14v51.59h-6.12v-37.91q0-0.75 0.04-1.62q0.07-0.86 0.14-1.76l-17.71 32.26q-0.83 1.62-2.52 1.62h-1.01q-1.69 0-2.52-1.62l-18.07-32.4q0.22 1.9 0.22 3.52v37.91h-6.12v-51.59h5.15q0.93 0 1.44 0.18q0.5 0.18 0.97 1.01l17.82 31.75q0.43 0.87 0.83 1.8q0.43 0.94 0.79 1.91q0.36-0.97 0.75-1.91q0.4-0.97 0.87-1.83l17.49-31.72q0.44-0.83 0.94-1.01q0.54-0.18 1.48-0.18zm25.3 45.9h24.84l-0.03 5.69h-31.79v-51.59h31.79v5.69h-24.81v17.14h20.09v5.47h-20.09zm41.55-20.92h7.34q3.03 0 5.33-0.72q2.34-0.75 3.89-2.08q1.58-1.37 2.37-3.24q0.8-1.88 0.8-4.14q0-4.61-3.03-6.95q-3.02-2.34-9.07-2.34h-7.63zm16.13 6.12l15.04 20.48h-6.19q-1.91 0-2.81-1.47l-13.39-18.44q-0.61-0.86-1.33-1.22q-0.68-0.4-2.16-0.4h-5.29v21.53h-6.95v-51.59h14.58q4.9 0 8.46 1.01q3.56 0.97 5.87 2.85q2.34 1.87 3.45 4.53q1.12 2.63 1.12 5.91q0 2.73-0.86 5.11q-0.87 2.37-2.52 4.28q-1.62 1.87-4 3.21q-2.34 1.33-5.33 2.01q1.33 0.76 2.31 2.2zm57.74 9.83q0.58 0 1.01 0.46l2.77 2.99q-3.17 3.67-7.7 5.73q-4.5 2.05-10.91 2.05q-5.55 0-10.08-1.91q-4.54-1.94-7.74-5.4q-3.21-3.49-4.97-8.35q-1.76-4.86-1.76-10.69q0-5.84 1.83-10.7q1.84-4.86 5.15-8.35q3.35-3.49 7.99-5.4q4.65-1.94 10.26-1.94q5.51 0 9.72 1.76q4.21 1.77 7.42 4.79l-2.31 3.2q-0.21 0.36-0.57 0.62q-0.33 0.21-0.9 0.21q-0.65 0-1.59-0.68q-0.93-0.72-2.44-1.59q-1.52-0.86-3.78-1.54q-2.27-0.72-5.58-0.72q-4 0-7.31 1.4q-3.31 1.37-5.73 4q-2.37 2.62-3.7 6.4q-1.34 3.78-1.34 8.54q0 4.82 1.37 8.6q1.41 3.78 3.78 6.41q2.41 2.59 5.65 3.96q3.28 1.37 7.06 1.37q2.3 0 4.14-0.26q1.87-0.28 3.42-0.86q1.58-0.58 2.92-1.44q1.36-0.9 2.7-2.12q0.61-0.54 1.22-0.54zm18.86 4.96h24.84l-0.03 5.69h-31.79v-51.59h31.79v5.69h-24.81v17.14h20.09v5.47h-20.09z" />
			</g>
			<g id="&lt;Group&gt;">
			</g>
			<g id="&lt;Group&gt;">
				<g id="&lt;Group&gt;">
					<g id="&lt;Group&gt;">
						<path id="&lt;Compound Path&gt;" fill-rule="evenodd" class="s1" d="m747.8 262.8v153.7c0 21-12.8 43.1-31 53.6l-133.1 76.9c-8.8 5-19.8 7.8-31 7.8c-11.2 0-22.2-2.8-30.9-7.8l-133.2-76.9c-18.2-10.5-30.9-32.6-30.9-53.6v-153.7c0-21.1 12.7-43.1 30.9-53.6l133.2-76.9c8.7-5.1 19.7-7.8 30.9-7.8c11.2 0 22.2 2.7 31 7.8l133.1 76.9c18.2 10.5 31 32.5 31 53.6zm-366.4 153.7c0 6.4 2.1 13.2 5.6 19.2c3.4 5.8 8.1 10.8 13.5 13.9l133.1 76.9c5.2 3 12 4.6 19.1 4.6c7.1 0 13.9-1.6 19.1-4.6l133.2-76.9c5.2-3 9.8-7.9 13.2-13.5c3.7-6.1 5.9-13.1 5.9-19.6v-153.7c0-12.6-8.2-26.8-19.1-33.1l-18.7-10.8l-114.5-66.1c-5.2-3-12-4.7-19.1-4.7c-7.1 0-13.9 1.7-19.1 4.7l-114 65.8l-19.1 11.1c-10.9 6.3-19.1 20.5-19.1 33.1z" />
					</g>
				</g>
				<g id="&lt;Group&gt;">
					<g id="&lt;Group&gt;">
						<path id="&lt;Path&gt;" class="s1" d="m496.9 327.5q2.2-32.7 12.9-44.9c-2.4-11.9-3-24.3-0.5-36c4.7-22.1 19.9-38.8 36.4-55.3c2.6-2.6 6.7-2.6 9.2 0c15.9 15.8 31.8 33.2 36.5 55.4c2.4 11.6 1.9 24-0.6 35.9q10.8 12.2 13 44.9q-21.5-1.9-28.9-3.8c-2.2 3.9-7.3 11.4-7.5 11.6c-1.2 1.3-2.9 2-4.6 2h-25c-2.1 0-4.1-1.1-5.3-2.8c-2.3-3.3-4.6-6.9-6.8-10.8q-7.3 1.9-28.8 3.8z" />
					</g>
					<g id="&lt;Group&gt;">
						<path id="&lt;Compound Path&gt;" fill-rule="evenodd" class="s1" d="m391 416.5v-52.8c26.1 17.8 67.3 30.4 112.7 36.2c34.2 3.8 41.5-25.1 38.6-55.9h17.9c0 12.4-7.5 60.3 42.4 55.3c44-4.8 85.5-15.7 111.9-36.7v53.9c0 4.5-1.7 9.8-4.5 14.6c-2.7 4.4-6.2 8.1-9.8 10.2l-133.2 76.8c-3.7 2.2-8.9 3.4-14.3 3.4c-5.3 0-10.5-1.2-14.3-3.4l-133.1-76.8c-3.8-2.2-7.3-5.9-10-10.5c-2.8-4.7-4.3-9.8-4.3-14.3zm295.7-11.2c0 3.7 3 6.7 6.7 6.7c3.8 0 6.8-3 6.8-6.7c0-3.8-3-6.8-6.8-6.8c-3.7 0-6.7 3-6.7 6.8zm-28 36c0 3.8 3.1 6.8 6.8 6.8c3.8 0 6.8-3 6.8-6.8c0-3.7-3-6.7-6.8-6.7c-3.7 0-6.8 3-6.8 6.7zm-28.5-26c0 3.8 3 6.8 6.8 6.8c3.7 0 6.7-3 6.7-6.8c0-3.7-3-6.7-6.7-6.7c-3.8 0-6.8 3-6.8 6.7zm-45.3 19.3c0 3.7 3.1 6.7 6.8 6.7c3.7 0 6.8-3 6.8-6.7c0-3.8-3.1-6.8-6.8-6.8c-3.7 0-6.8 3-6.8 6.8zm0 39.3c0 5.9 4.9 10.8 10.8 10.8c6 0 10.8-4.9 10.8-10.8c0-6-4.8-10.8-10.8-10.8c-5.9 0-10.8 4.8-10.8 10.8zm-32.4 19.9c-5.1 0-9.2 4.2-9.2 9.2c0 5.1 4.1 9.2 9.2 9.2c5.1 0 9.2-4.1 9.2-9.2c0-5-4.1-9.2-9.2-9.2zm-16.2-73.7c0 3.9 3.2 7 7 7c3.9 0 7-3.1 7-7c0-3.9-3.1-7-7-7c-3.8 0-7 3.1-7 7zm-16.2 40.1c0 4.3 3.5 7.8 7.8 7.8c4.3 0 7.8-3.5 7.8-7.8c0-4.3-3.5-7.8-7.8-7.8c-4.3 0-7.8 3.5-7.8 7.8zm-44.4 7.8c0 2.7 2.2 4.9 4.9 4.9c2.8 0 5-2.2 5-4.9c0-2.7-2.2-4.9-5-4.9c-2.7 0-4.9 2.2-4.9 4.9zm-22.8-47.8c0 5.1 4.1 9.2 9.2 9.2c5 0 9.1-4.1 9.1-9.2c0-5.1-4.1-9.2-9.1-9.2c-5.1 0-9.2 4.1-9.2 9.2zm-46.9-0.1c0 3.1 2.6 5.7 5.7 5.7c3.2 0 5.7-2.6 5.7-5.7c0-3.1-2.5-5.7-5.7-5.7c-3.1 0-5.7 2.6-5.7 5.7z" />
					</g>
				</g>
			</g>
		</g>
	</g>
</svg>